#N canvas 840 168 450 300 12;
#X obj 180 200 int;
#X obj 219 200 + 1;
#X obj 180 228 list;
#X obj 180 170 t b a;
#X obj 180 259 print Serial#;
#X obj 159 13 loadbang;
#X msg 182 107 devicename /dev/ttyUSB0;
#X msg 100 100 close;
#X msg 291 76 info;
#X obj 354 165 route open;
#X obj 139 17 bng 15 250 50 0 empty empty empty 17 7 0 10 #fcfcfc #000000
#000000;
#X obj 263 45 t b b;
#X obj 354 190 == 0;
#X obj 301 216 spigot 0;
#X obj 263 16 metro 1000;
#X obj 116 168 outlet;
#X obj 182 136 comport /dev/ttyUSB0 115200;
#X connect 0 0 1 0;
#X connect 0 0 2 0;
#X connect 1 0 0 1;
#X connect 2 0 4 0;
#X connect 3 0 0 0;
#X connect 3 1 2 1;
#X connect 5 0 14 0;
#X connect 6 0 16 0;
#X connect 7 0 16 0;
#X connect 8 0 16 0;
#X connect 9 0 12 0;
#X connect 10 0 14 0;
#X connect 11 0 13 0;
#X connect 11 1 8 0;
#X connect 12 0 13 1;
#X connect 13 0 6 0;
#X connect 14 0 11 0;
#X connect 16 0 3 0;
#X connect 16 0 15 0;
#X connect 16 1 9 0;
