#N canvas 1011 1209 850 730 12;
#X obj 283 246 spigot 0;
#X obj 180 245 spigot 1;
#X obj 233 211 == 0;
#X obj 197 365 line;
#X obj 247 118 t b f;
#X obj 179 274 value CROSSFADE_SPEED;
#X obj 281 301 value CROSSFADE_SPEED;
#X msg 185 336 0 \, 1 \$1;
#X msg 260 336 1 \, 0 \$1;
#X obj 198 398 outlet;
#X obj 246 79 inlet;
#X connect 0 0 6 0;
#X connect 1 0 5 0;
#X connect 2 0 1 1;
#X connect 3 0 9 0;
#X connect 4 0 0 0;
#X connect 4 0 1 0;
#X connect 4 1 0 1;
#X connect 4 1 2 0;
#X connect 5 0 7 0;
#X connect 6 0 8 0;
#X connect 7 0 3 0;
#X connect 8 0 3 0;
#X connect 10 0 4 0;
