#N canvas 97 1252 869 653 12;
#X obj 555 196 gemhead;
#X obj 552 261 pix_film;
#X obj 521 137 makefilename %d.mp4;
#X msg 521 161 open \$1;
#X obj 310 79 makefilename %d.wav;
#X obj 310 206 soundfiler;
#X obj 311 358 line~;
#X msg 426 33 0;
#X obj 435 403 snapshot~;
#X obj 435 372 metro 33;
#X obj 454 341 bng 15 250 50 0 empty empty empty 17 7 0 10 #fcfcfc
#000000 #000000;
#X obj 343 258 / 22050;
#X obj 343 281 * 1000;
#X obj 438 469 / 22050;
#X obj 311 305 pack f f;
#X obj 311 229 t f f;
#X msg 311 333 0 \, \$1 \$2;
#X obj 423 308 loadbang;
#X obj 72 289 delay;
#X obj 72 265 t b f;
#X obj 72 314 print video done;
#X obj 459 552 s \$0-frame;
#X obj 608 234 r \$0-frame;
#X obj 258 404 tabread4~ \$0-audiobuffer;
#X obj 14 18 table \$0-audiobuffer 100;
#X obj 373 41 t f f;
#X obj 371 5 inlet;
#X obj 201 432 outlet;
#X obj 259 432 outlet~;
#X msg 65 468 \$0;
#X obj 66 513 print;
#X obj 75 438 int \$0;
#X msg 310 183 read -resize \$1 \$2-audiobuffer;
#X obj 363 130 int \$0;
#X obj 363 105 loadbang;
#X obj 310 157 pack s f;
#X obj 425 7 inlet;
#X obj 552 288 outlet;
#X obj 615 200 spigot 0;
#X obj 666 165 inlet;
#X obj 606 286 unpack f f f f;
#X obj 434 435 * 25;
#X msg 476 341 stop;
#X obj 459 527 change;
#X obj 461 503 int;
#X connect 0 0 38 0;
#X connect 1 0 37 0;
#X connect 1 1 40 0;
#X connect 2 0 3 0;
#X connect 3 0 1 0;
#X connect 4 0 35 0;
#X connect 5 0 15 0;
#X connect 6 0 8 0;
#X connect 6 0 23 0;
#X connect 7 0 6 0;
#X connect 8 0 41 0;
#X connect 9 0 8 0;
#X connect 10 0 9 0;
#X connect 11 0 12 0;
#X connect 12 0 14 1;
#X connect 12 0 27 0;
#X connect 13 0 44 0;
#X connect 14 0 16 0;
#X connect 15 0 14 0;
#X connect 15 1 11 0;
#X connect 16 0 6 0;
#X connect 17 0 9 0;
#X connect 18 0 20 0;
#X connect 19 0 18 0;
#X connect 19 1 18 1;
#X connect 22 0 1 1;
#X connect 23 0 28 0;
#X connect 25 0 4 0;
#X connect 25 0 2 0;
#X connect 26 0 25 0;
#X connect 29 0 30 0;
#X connect 32 0 5 0;
#X connect 33 0 35 1;
#X connect 34 0 33 0;
#X connect 35 0 32 0;
#X connect 36 0 7 0;
#X connect 38 0 1 0;
#X connect 39 0 38 1;
#X connect 41 0 13 0;
#X connect 42 0 9 0;
#X connect 43 0 21 0;
#X connect 44 0 43 0;
