#N canvas 953 239 869 653 12;
#X obj 310 79 makefilename %d.wav;
#X obj 310 206 soundfiler;
#X obj 311 358 line~;
#X obj 435 403 snapshot~;
#X obj 435 372 metro 33;
#X obj 454 341 bng 15 250 50 0 empty empty empty 17 7 0 10 #fcfcfc
#000000 #000000;
#X obj 343 258 / 22050;
#X obj 343 281 * 1000;
#X obj 438 469 / 22050;
#X obj 311 305 pack f f;
#X obj 311 229 t f f;
#X msg 311 333 0 \, \$1 \$2;
#X obj 423 308 loadbang;
#X obj 258 404 tabread4~ \$0-audiobuffer;
#X obj 14 18 table \$0-audiobuffer 100;
#X obj 373 41 t f f;
#X obj 371 5 inlet;
#X obj 168 428 outlet;
#X obj 259 432 outlet~;
#X msg 310 183 read -resize \$1 \$2-audiobuffer;
#X obj 363 130 int \$0;
#X obj 363 105 loadbang;
#X obj 310 157 pack s f;
#X obj 637 244 inlet;
#X obj 434 435 * 25;
#X msg 476 341 stop;
#X obj 459 527 change;
#X obj 461 503 int;
#X obj 700 250 int \$1;
#X obj 700 224 loadbang;
#X obj 701 274 + 1;
#X msg 700 298 connect localhost \$1;
#X msg 637 272 send \$1;
#X obj 522 102 int \$1;
#X obj 522 76 loadbang;
#X msg 522 129 connect localhost \$1;
#X msg 461 106 send \$1;
#X obj 700 324 netsend -u;
#X obj 522 155 netsend -u;
#X obj 526 508 int \$1;
#X obj 526 482 loadbang;
#X msg 526 556 connect localhost \$1;
#X msg 460 553 send \$1;
#X obj 526 582 netsend -u;
#X obj 527 532 + 2;
#X connect 0 0 22 0;
#X connect 1 0 10 0;
#X connect 2 0 3 0;
#X connect 2 0 13 0;
#X connect 3 0 24 0;
#X connect 4 0 3 0;
#X connect 5 0 4 0;
#X connect 6 0 7 0;
#X connect 7 0 9 1;
#X connect 7 0 17 0;
#X connect 8 0 27 0;
#X connect 9 0 11 0;
#X connect 10 0 9 0;
#X connect 10 1 6 0;
#X connect 11 0 2 0;
#X connect 12 0 4 0;
#X connect 13 0 18 0;
#X connect 15 0 0 0;
#X connect 15 1 36 0;
#X connect 16 0 15 0;
#X connect 19 0 1 0;
#X connect 20 0 22 1;
#X connect 21 0 20 0;
#X connect 22 0 19 0;
#X connect 23 0 32 0;
#X connect 24 0 8 0;
#X connect 25 0 4 0;
#X connect 26 0 42 0;
#X connect 27 0 26 0;
#X connect 28 0 30 0;
#X connect 29 0 28 0;
#X connect 30 0 31 0;
#X connect 31 0 37 0;
#X connect 32 0 37 0;
#X connect 33 0 35 0;
#X connect 34 0 33 0;
#X connect 35 0 38 0;
#X connect 36 0 38 0;
#X connect 39 0 44 0;
#X connect 40 0 39 0;
#X connect 41 0 43 0;
#X connect 42 0 43 0;
#X connect 44 0 41 0;
