#N canvas 223 332 597 447 12;
#X obj 243 227 gemhead;
#X obj 180 312 pix_film;
#X obj 89 253 makefilename %d.mp4;
#X msg 89 277 open \$1;
#X obj 243 251 spigot 0;
#X obj 89 225 netreceive -u \$1;
#X obj 301 153 int \$1;
#X obj 301 127 loadbang;
#X obj 301 177 + 1;
#X obj 301 227 netreceive -u;
#X msg 301 201 listen \$1;
#X obj 402 153 int \$1;
#X obj 402 127 loadbang;
#X obj 402 227 netreceive -u;
#X msg 402 201 listen \$1;
#X obj 403 177 + 2;
#X obj 180 339 pix_separator;
#X obj 180 364 outlet;
#X connect 0 0 4 0;
#X connect 1 0 16 0;
#X connect 2 0 3 0;
#X connect 3 0 1 0;
#X connect 4 0 1 0;
#X connect 5 0 2 0;
#X connect 6 0 8 0;
#X connect 7 0 6 0;
#X connect 8 0 10 0;
#X connect 9 0 4 1;
#X connect 10 0 9 0;
#X connect 11 0 15 0;
#X connect 12 0 11 0;
#X connect 13 0 1 1;
#X connect 14 0 13 0;
#X connect 15 0 14 0;
#X connect 16 0 17 0;
