#N canvas 0 0 960 973 12;
#X declare -lib Gem;
#N canvas 1289 168 450 300 init 1;
#X obj 325 3 declare -lib Gem;
#X msg 13 226 dimen 400 300 \, create \, 1;
#X obj 11 200 loadbang;
#X obj 14 66 value NUM_OF_VIDEOS;
#X msg 13 40 4;
#X obj 15 13 loadbang;
#X msg 284 170 \; pd dsp 1;
#X obj 284 140 loadbang;
#X obj 12 253 gemwin 50;
#X connect 1 0 8 0;
#X connect 2 0 1 0;
#X connect 4 0 3 0;
#X connect 5 0 4 0;
#X connect 7 0 6 0;
#X restore 836 47 pd init;
#X obj 95 248 random;
#X obj 135 225 value NUM_OF_VIDEOS;
#X obj 95 225 bng 15 250 50 0 empty empty empty 17 7 0 10 #fcfcfc #000000
#000000;
#X obj 95 272 + 1;
#X obj 134 193 loadbang;
#X obj 201 196 bng 15 250 50 0 empty empty empty 17 7 0 10 #fcfcfc
#000000 #000000;
#X obj 271 726 dac~;
#X obj 81 335 print;
#X obj 94 304 playVidAud;
#X obj 162 275 bng 15 250 50 0 empty empty empty 17 7 0 10 #fcfcfc
#000000 #000000;
#X obj 228 409 pix_mix;
#X obj 229 434 pix_texture;
#X obj 229 459 rectangle 5.3333 4;
#X obj 276 379 hsl 128 15 0 1 0 0 empty empty empty -2 -8 0 10 #fcfcfc
#000000 #000000 0 1;
#X obj 135 516 line~;
#X msg 137 489 \$1 100;
#X obj 138 461 expr 1 - $f1;
#X obj 114 563 *~;
#X obj 277 678 +~;
#X obj 465 248 random;
#X obj 505 225 value NUM_OF_VIDEOS;
#X obj 465 225 bng 15 250 50 0 empty empty empty 17 7 0 10 #fcfcfc
#000000 #000000;
#X obj 465 272 + 1;
#X obj 504 193 loadbang;
#X obj 571 196 bng 15 250 50 0 empty empty empty 17 7 0 10 #fcfcfc
#000000 #000000;
#X obj 451 335 print;
#X obj 532 275 bng 15 250 50 0 empty empty empty 17 7 0 10 #fcfcfc
#000000 #000000;
#X obj 464 304 playVidAud;
#X obj 162 328 pix_separator;
#X obj 531 330 pix_separator;
#X obj 478 567 line~;
#X msg 480 540 \$1 100;
#X obj 457 614 *~;
#X connect 1 0 4 0;
#X connect 2 0 1 1;
#X connect 3 0 1 0;
#X connect 4 0 9 0;
#X connect 5 0 2 0;
#X connect 6 0 2 0;
#X connect 9 0 8 0;
#X connect 9 1 18 0;
#X connect 9 2 29 0;
#X connect 10 0 9 1;
#X connect 11 0 12 0;
#X connect 12 0 13 0;
#X connect 14 0 11 2;
#X connect 14 0 17 0;
#X connect 14 0 32 0;
#X connect 15 0 18 1;
#X connect 16 0 15 0;
#X connect 17 0 16 0;
#X connect 18 0 19 0;
#X connect 19 0 7 0;
#X connect 19 0 7 1;
#X connect 20 0 23 0;
#X connect 21 0 20 1;
#X connect 22 0 20 0;
#X connect 23 0 28 0;
#X connect 24 0 21 0;
#X connect 25 0 21 0;
#X connect 27 0 28 1;
#X connect 28 0 26 0;
#X connect 28 1 33 0;
#X connect 28 2 30 0;
#X connect 29 0 11 0;
#X connect 30 0 11 1;
#X connect 31 0 33 1;
#X connect 32 0 31 0;
#X connect 33 0 19 1;
