#N canvas 914 212 450 401 12;
#X declare -lib Gem;
#X obj 207 121 playVid 5000;
#X obj 230 146 playVid 5005;
#X obj 253 172 netreceive -u 6000;
#X obj 207 199 pix_mix;
#X obj 252 274 netreceive -u 6010;
#X obj 230 250 playVid 5010;
#X obj 207 299 pix_mix;
#X obj 207 225 pix_separator;
#X obj 207 323 pix_texture;
#X obj 207 347 rectangle 5.3333 4;
#N canvas 1399 43 528 300 init 1;
#X msg 76 137 dimen 640 480 \, create \, 1;
#X msg 83 219 destroy;
#X obj 325 3 declare -lib Gem;
#X obj 43 254 gemwin 30;
#X obj 168 165 gemkeyboard;
#X obj 83 166 key;
#X obj 168 189 select 24;
#X obj 83 191 select 113;
#X obj 43 61 r debug;
#X obj 43 86 select 0 1;
#X msg 43 111 dimen 640 480 \, border 0 \, cursor 0 \, offset 0 0 \,
create \, 1;
#X connect 0 0 3 0;
#X connect 1 0 3 0;
#X connect 4 0 6 0;
#X connect 5 0 7 0;
#X connect 6 0 1 0;
#X connect 7 0 1 0;
#X connect 8 0 9 0;
#X connect 9 0 10 0;
#X connect 9 1 0 0;
#X connect 10 0 3 0;
#X restore 24 120 pd init;
#X connect 0 0 3 0;
#X connect 1 0 3 1;
#X connect 2 0 3 2;
#X connect 3 0 7 0;
#X connect 4 0 6 2;
#X connect 5 0 6 1;
#X connect 6 0 8 0;
#X connect 7 0 6 0;
#X connect 8 0 9 0;
