#N canvas 784 79 960 686 12;
#X declare -lib Gem;
#N canvas 194 297 450 300 init 1;
#X obj 325 3 declare -lib Gem;
#X obj 11 200 loadbang;
#X obj 14 66 value NUM_OF_VIDEOS;
#X obj 15 13 loadbang;
#X msg 284 170 \; pd dsp 1;
#X obj 284 140 loadbang;
#X obj 43 117 value CROSSFADE_SPEED;
#X msg 43 93 500;
#X msg 13 40 1;
#X msg 13 226 dimen 640 480 \, create \, 1;
#X msg 192 225 destroy;
#X obj 12 253 gemwin 25;
#X connect 1 0 9 0;
#X connect 3 0 8 0;
#X connect 3 0 7 0;
#X connect 5 0 4 0;
#X connect 7 0 6 0;
#X connect 8 0 2 0;
#X connect 9 0 11 0;
#X connect 10 0 11 0;
#X restore 836 47 pd init;
#N canvas 270 1162 1312 686 noActivityLoop 0;
#X obj 231 77 playVidAud;
#X obj 484 459 pix_mix;
#X obj 391 565 line~;
#X msg 393 538 \$1 100;
#X obj 394 510 expr 1 - $f1;
#X obj 370 612 *~;
#X obj 541 673 +~;
#X obj 298 106 pix_separator;
#X obj 660 117 playVidAud;
#X obj 687 568 line~;
#X msg 689 541 \$1 100;
#X obj 666 615 *~;
#X obj 742 236 pix_separator;
#X msg 229 46 0;
#X msg 661 85 0;
#X obj 414 185 value CROSSFADE_SPEED;
#X obj 396 243 -;
#X obj 414 130 loadbang;
#X obj 414 158 delay 10;
#X obj 414 215 + 250;
#X obj 575 181 value CROSSFADE_SPEED;
#X obj 531 223 -;
#X obj 579 125 loadbang;
#X obj 576 154 delay 10;
#X obj 564 214 + 250;
#X obj 516 391 crossfader;
#X obj 396 297 delay;
#X obj 396 267 t b f;
#X obj 530 277 delay;
#X obj 530 247 t b f;
#X obj 304 46 tgl 15 0 empty empty empty 17 7 0 10 #fcfcfc #000000
#000000 0 1;
#X obj 741 77 tgl 15 0 empty empty empty 17 7 0 10 #fcfcfc #000000
#000000 0 1;
#X msg 531 305 1;
#X msg 396 326 0;
#X obj 217 486 print delay;
#X obj 544 348 spigot 1;
#X obj 613 307 tgl 15 0 empty empty empty 17 7 0 10 #fcfcfc #000000
#000000 0 1;
#X msg 769 361 stop;
#X obj 871 57 inlet;
#X obj 885 121 select 0 1;
#X obj 542 711 *~;
#X obj 764 646 line~;
#X msg 763 614 \$1 100;
#X obj 724 728 outlet;
#X obj 540 741 outlet~;
#X msg 278 565 1;
#X obj 280 536 loadbang;
#X connect 0 0 16 0;
#X connect 0 1 5 0;
#X connect 0 2 7 0;
#X connect 1 0 43 0;
#X connect 2 0 5 1;
#X connect 3 0 2 0;
#X connect 4 0 3 0;
#X connect 5 0 6 0;
#X connect 6 0 40 0;
#X connect 7 0 1 0;
#X connect 8 0 21 0;
#X connect 8 1 11 0;
#X connect 8 2 12 0;
#X connect 9 0 11 1;
#X connect 10 0 9 0;
#X connect 11 0 6 1;
#X connect 12 0 1 1;
#X connect 13 0 0 0;
#X connect 14 0 8 0;
#X connect 15 0 19 0;
#X connect 16 0 27 0;
#X connect 17 0 18 0;
#X connect 18 0 15 0;
#X connect 19 0 16 1;
#X connect 20 0 24 0;
#X connect 21 0 29 0;
#X connect 22 0 23 0;
#X connect 23 0 20 0;
#X connect 24 0 21 1;
#X connect 25 0 1 2;
#X connect 25 0 10 0;
#X connect 25 0 4 0;
#X connect 26 0 33 0;
#X connect 26 0 14 0;
#X connect 27 0 26 0;
#X connect 27 1 26 1;
#X connect 28 0 32 0;
#X connect 28 0 13 0;
#X connect 29 0 28 0;
#X connect 29 1 28 1;
#X connect 30 0 0 2;
#X connect 31 0 8 2;
#X connect 32 0 34 0;
#X connect 32 0 35 0;
#X connect 33 0 34 0;
#X connect 33 0 35 0;
#X connect 35 0 25 0;
#X connect 36 0 35 1;
#X connect 37 0 28 0;
#X connect 37 0 26 0;
#X connect 38 0 36 0;
#X connect 38 0 31 0;
#X connect 38 0 30 0;
#X connect 38 0 39 0;
#X connect 38 0 42 0;
#X connect 39 0 37 0;
#X connect 39 1 13 0;
#X connect 40 0 44 0;
#X connect 41 0 40 1;
#X connect 42 0 41 0;
#X connect 45 0 3 0;
#X connect 46 0 45 0;
#X restore 280 497 pd noActivityLoop;
#X obj 283 472 tgl 15 0 empty empty empty 17 7 0 10 #fcfcfc #000000
#000000 0 1;
#X obj 547 710 pix_texture;
#X obj 547 734 rectangle 5.3333 4;
#X obj 353 761 dac~;
#N canvas 201 273 972 691 activity 0;
#X obj 533 228 random;
#X obj 573 205 value NUM_OF_VIDEOS;
#X obj 533 205 bng 15 250 50 0 empty empty empty 17 7 0 10 #fcfcfc
#000000 #000000;
#X obj 533 252 + 1;
#X obj 572 125 loadbang;
#X obj 639 176 bng 15 250 50 0 empty empty empty 17 7 0 10 #fcfcfc
#000000 #000000;
#X obj 532 284 playVidAud;
#X obj 562 253 bng 15 250 50 0 empty empty empty 17 7 0 10 #fcfcfc
#000000 #000000;
#X obj 599 253 tgl 15 0 empty empty empty 17 7 0 10 #fcfcfc #000000
#000000 0 1;
#X obj 569 166 delay 10;
#X obj 489 165 inlet;
#X obj 552 330 outlet~;
#X obj 615 330 outlet;
#X obj 496 330 outlet;
#X msg 620 248 1;
#X connect 0 0 3 0;
#X connect 1 0 0 1;
#X connect 2 0 0 0;
#X connect 3 0 6 0;
#X connect 4 0 9 0;
#X connect 5 0 1 0;
#X connect 6 0 13 0;
#X connect 6 1 11 0;
#X connect 6 2 12 0;
#X connect 7 0 6 1;
#X connect 8 0 6 2;
#X connect 9 0 1 0;
#X connect 10 0 0 0;
#X connect 10 0 14 0;
#X connect 14 0 8 0;
#X restore 587 497 pd activity;
#N canvas 0 0 450 300 scratch 1;
#X obj 95 248 random;
#X obj 135 225 value NUM_OF_VIDEOS;
#X obj 95 225 bng 15 250 50 0 empty empty empty 17 7 0 10 #fcfcfc #000000
#000000;
#X obj 95 272 + 1;
#X obj 134 193 loadbang;
#X obj 201 196 bng 15 250 50 0 empty empty empty 17 7 0 10 #fcfcfc
#000000 #000000;
#X obj 271 726 dac~;
#X obj 81 335 print;
#X obj 94 304 playVidAud;
#X obj 162 275 bng 15 250 50 0 empty empty empty 17 7 0 10 #fcfcfc
#000000 #000000;
#X obj 228 409 pix_mix;
#X obj 229 434 pix_texture;
#X obj 229 459 rectangle 5.3333 4;
#X obj 289 320 hsl 128 15 0 1 0 0 empty empty empty -2 -8 0 10 #fcfcfc
#000000 #000000 0 1;
#X obj 135 516 line~;
#X msg 137 489 \$1 100;
#X obj 138 461 expr 1 - $f1;
#X obj 114 563 *~;
#X obj 277 678 +~;
#X obj 465 248 random;
#X obj 505 225 value NUM_OF_VIDEOS;
#X obj 465 225 bng 15 250 50 0 empty empty empty 17 7 0 10 #fcfcfc
#000000 #000000;
#X obj 465 272 + 1;
#X obj 504 193 loadbang;
#X obj 571 196 bng 15 250 50 0 empty empty empty 17 7 0 10 #fcfcfc
#000000 #000000;
#X obj 451 335 print;
#X obj 532 275 bng 15 250 50 0 empty empty empty 17 7 0 10 #fcfcfc
#000000 #000000;
#X obj 464 304 playVidAud;
#X obj 162 328 pix_separator;
#X obj 531 330 pix_separator;
#X obj 478 567 line~;
#X msg 480 540 \$1 100;
#X obj 457 614 *~;
#X obj 757 305 spigot 0;
#X obj 654 304 spigot 1;
#X obj 707 270 == 0;
#X obj 671 424 line;
#X floatatom 666 495 5 0 0 0 - - - 0;
#X obj 721 177 t b f;
#X obj 714 142 tgl 15 0 empty empty empty 17 7 0 10 #fcfcfc #000000
#000000 0 1;
#X obj 828 158 snapshot~;
#X obj 858 121 metro 50;
#X obj 856 94 bng 15 250 50 0 empty empty empty 17 7 0 10 #fcfcfc #000000
#000000;
#X floatatom 824 213 5 0 0 0 - - - 0;
#X obj 653 333 value CROSSFADE_SPEED;
#X obj 755 360 value CROSSFADE_SPEED;
#X msg 659 395 0 \, 1 \$1;
#X msg 734 395 1 \, 0 \$1;
#X connect 0 0 3 0;
#X connect 1 0 0 1;
#X connect 2 0 0 0;
#X connect 3 0 8 0;
#X connect 4 0 1 0;
#X connect 5 0 1 0;
#X connect 8 0 7 0;
#X connect 8 1 17 0;
#X connect 8 2 28 0;
#X connect 9 0 8 1;
#X connect 10 0 11 0;
#X connect 11 0 12 0;
#X connect 13 0 10 2;
#X connect 13 0 16 0;
#X connect 13 0 31 0;
#X connect 14 0 17 1;
#X connect 15 0 14 0;
#X connect 16 0 15 0;
#X connect 17 0 18 0;
#X connect 18 0 6 0;
#X connect 18 0 6 1;
#X connect 19 0 22 0;
#X connect 20 0 19 1;
#X connect 21 0 19 0;
#X connect 22 0 27 0;
#X connect 23 0 20 0;
#X connect 24 0 20 0;
#X connect 26 0 27 1;
#X connect 27 0 25 0;
#X connect 27 1 32 0;
#X connect 27 2 29 0;
#X connect 28 0 10 0;
#X connect 29 0 10 1;
#X connect 30 0 32 1;
#X connect 31 0 30 0;
#X connect 32 0 18 1;
#X connect 33 0 45 0;
#X connect 34 0 44 0;
#X connect 35 0 34 1;
#X connect 36 0 37 0;
#X connect 36 0 13 0;
#X connect 38 0 33 0;
#X connect 38 0 34 0;
#X connect 38 1 33 1;
#X connect 38 1 35 0;
#X connect 39 0 38 0;
#X connect 40 0 43 0;
#X connect 41 0 40 0;
#X connect 42 0 41 0;
#X connect 44 0 46 0;
#X connect 45 0 47 0;
#X connect 46 0 36 0;
#X connect 47 0 36 0;
#X restore 160 887 pd scratch;
#X obj 547 680 pix_mix;
#X obj 498 306 bng 15 250 50 0 empty empty empty 17 7 0 10 #fcfcfc
#000000 #000000;
#X obj 374 700 +~;
#X obj 397 672 *~;
#X obj 350 673 *~;
#X obj 575 181 value CROSSFADE_SPEED;
#X obj 575 128 loadbang;
#X obj 575 154 delay 10;
#X obj 557 227 -;
#X obj 556 281 delay;
#X obj 556 251 t b f;
#X msg 556 308 1;
#X obj 502 363 crossfader;
#X msg 498 335 0;
#X obj 367 626 line~;
#X msg 369 599 \$1 100;
#X obj 370 571 expr 1 - $f1;
#X obj 439 641 line~;
#X msg 441 614 \$1 100;
#X obj 556 131 bng 15 250 50 0 empty empty empty 17 7 0 10 #fcfcfc
#000000 #000000;
#X obj 575 204 + 250;
#X obj 185 238 comport;
#X obj 283 411 loadbang;
#X msg 284 436 1;
#X msg 263 611 1;
#X obj 263 586 loadbang;
#X connect 1 0 12 0;
#X connect 1 1 8 0;
#X connect 2 0 1 0;
#X connect 2 0 23 0;
#X connect 3 0 4 0;
#X connect 6 0 16 0;
#X connect 6 1 11 0;
#X connect 6 2 8 1;
#X connect 8 0 3 0;
#X connect 9 0 6 0;
#X connect 9 0 21 0;
#X connect 10 0 5 0;
#X connect 10 0 5 1;
#X connect 11 0 10 1;
#X connect 12 0 10 0;
#X connect 13 0 28 0;
#X connect 14 0 15 0;
#X connect 15 0 13 0;
#X connect 16 0 18 0;
#X connect 17 0 19 0;
#X connect 18 0 17 0;
#X connect 18 1 17 1;
#X connect 19 0 20 0;
#X connect 20 0 8 2;
#X connect 20 0 24 0;
#X connect 20 0 26 0;
#X connect 21 0 20 0;
#X connect 22 0 12 1;
#X connect 23 0 22 0;
#X connect 24 0 23 0;
#X connect 25 0 11 1;
#X connect 26 0 25 0;
#X connect 27 0 15 0;
#X connect 28 0 16 1;
#X connect 30 0 31 0;
#X connect 31 0 2 0;
#X connect 32 0 23 0;
#X connect 33 0 32 0;
