#N canvas 0 25 960 686 12;
#N canvas 48 141 450 300 init 0;
#X obj 14 66 value NUM_OF_VIDEOS;
#X obj 15 13 loadbang;
#X msg 40 196 \; pd dsp 1;
#X obj 40 166 loadbang;
#X obj 43 117 value CROSSFADE_SPEED;
#X msg 43 93 500;
#X msg 13 40 121;
#X connect 1 0 6 0;
#X connect 1 0 5 0;
#X connect 3 0 2 0;
#X connect 5 0 4 0;
#X connect 6 0 0 0;
#X restore 836 47 pd init;
#N canvas 504 196 1312 686 noActivityLoop 0;
#X obj 391 565 line~;
#X msg 393 538 \$1 100;
#X obj 394 510 expr 1 - $f1;
#X obj 370 612 *~;
#X obj 541 673 +~;
#X obj 687 568 line~;
#X msg 689 541 \$1 100;
#X obj 666 615 *~;
#X msg 229 46 0;
#X msg 661 85 0;
#X obj 414 185 value CROSSFADE_SPEED;
#X obj 396 243 -;
#X obj 414 130 loadbang;
#X obj 414 158 delay 10;
#X obj 414 215 + 250;
#X obj 575 181 value CROSSFADE_SPEED;
#X obj 531 223 -;
#X obj 579 125 loadbang;
#X obj 576 154 delay 10;
#X obj 564 214 + 250;
#X obj 516 391 crossfader;
#X obj 396 297 delay;
#X obj 396 267 t b f;
#X obj 530 277 delay;
#X obj 530 247 t b f;
#X obj 304 46 tgl 15 0 empty empty empty 17 7 0 10 #fcfcfc #000000
#000000 0 1;
#X obj 741 77 tgl 15 0 empty empty empty 17 7 0 10 #fcfcfc #000000
#000000 0 1;
#X msg 531 305 1;
#X msg 396 326 0;
#X obj 544 348 spigot 1;
#X obj 613 307 tgl 15 0 empty empty empty 17 7 0 10 #fcfcfc #000000
#000000 0 1;
#X msg 769 361 stop;
#X obj 871 57 inlet;
#X obj 885 121 select 0 1;
#X obj 542 711 *~;
#X obj 764 646 line~;
#X msg 763 614 \$1 100;
#X obj 540 741 outlet~;
#X msg 278 565 1;
#X obj 280 536 loadbang;
#X obj 231 77 playVidAud 5000;
#X obj 660 117 playVidAud 5005;
#X msg 537 444 connect localhost 6000;
#X msg 516 422 send \$1;
#X obj 516 473 netsend -u;
#X obj 588 418 loadbang;
#X connect 0 0 3 1;
#X connect 1 0 0 0;
#X connect 2 0 1 0;
#X connect 3 0 4 0;
#X connect 4 0 34 0;
#X connect 5 0 7 1;
#X connect 6 0 5 0;
#X connect 7 0 4 1;
#X connect 8 0 40 0;
#X connect 9 0 41 0;
#X connect 10 0 14 0;
#X connect 11 0 22 0;
#X connect 12 0 13 0;
#X connect 13 0 10 0;
#X connect 14 0 11 1;
#X connect 15 0 19 0;
#X connect 16 0 24 0;
#X connect 17 0 18 0;
#X connect 18 0 15 0;
#X connect 19 0 16 1;
#X connect 20 0 6 0;
#X connect 20 0 2 0;
#X connect 20 0 43 0;
#X connect 21 0 28 0;
#X connect 21 0 9 0;
#X connect 22 0 21 0;
#X connect 22 1 21 1;
#X connect 23 0 27 0;
#X connect 23 0 8 0;
#X connect 24 0 23 0;
#X connect 24 1 23 1;
#X connect 25 0 40 1;
#X connect 26 0 41 1;
#X connect 27 0 29 0;
#X connect 28 0 29 0;
#X connect 29 0 20 0;
#X connect 30 0 29 1;
#X connect 31 0 23 0;
#X connect 31 0 21 0;
#X connect 32 0 30 0;
#X connect 32 0 26 0;
#X connect 32 0 25 0;
#X connect 32 0 33 0;
#X connect 32 0 36 0;
#X connect 33 0 31 0;
#X connect 33 1 8 0;
#X connect 34 0 37 0;
#X connect 35 0 34 1;
#X connect 36 0 35 0;
#X connect 38 0 1 0;
#X connect 39 0 38 0;
#X connect 40 0 11 0;
#X connect 40 1 3 0;
#X connect 41 0 16 0;
#X connect 41 1 7 0;
#X connect 42 0 44 0;
#X connect 43 0 44 0;
#X connect 45 0 42 0;
#X restore 280 497 pd noActivityLoop;
#X obj 283 472 tgl 15 0 empty empty empty 17 7 0 10 #fcfcfc #000000
#000000 0 1;
#X obj 353 761 dac~;
#N canvas 737 257 972 691 activity 0;
#X obj 533 228 random;
#X obj 573 205 value NUM_OF_VIDEOS;
#X obj 533 205 bng 15 250 50 0 empty empty empty 17 7 0 10 #fcfcfc
#000000 #000000;
#X obj 533 252 + 1;
#X obj 572 125 loadbang;
#X obj 639 176 bng 15 250 50 0 empty empty empty 17 7 0 10 #fcfcfc
#000000 #000000;
#X obj 562 253 bng 15 250 50 0 empty empty empty 17 7 0 10 #fcfcfc
#000000 #000000;
#X obj 599 253 tgl 15 0 empty empty empty 17 7 0 10 #fcfcfc #000000
#000000 0 1;
#X obj 569 166 delay 10;
#X obj 489 165 inlet;
#X obj 631 314 outlet~;
#X obj 530 309 outlet;
#X msg 620 248 1;
#X obj 531 283 playVidAud 5010;
#X obj 670 255 tgl 15 0 empty empty empty 17 7 0 10 #fcfcfc #000000
#000000 0 1;
#X obj 691 252 loadbang;
#X msg 691 278 1;
#X connect 0 0 3 0;
#X connect 1 0 0 1;
#X connect 2 0 0 0;
#X connect 3 0 13 0;
#X connect 4 0 8 0;
#X connect 5 0 1 0;
#X connect 6 0 13 1;
#X connect 8 0 1 0;
#X connect 9 0 0 0;
#X connect 9 0 12 0;
#X connect 12 0 7 0;
#X connect 13 0 11 0;
#X connect 13 1 10 0;
#X connect 14 0 13 1;
#X connect 15 0 16 0;
#X connect 16 0 13 1;
#X restore 610 433 pd activity;
#X obj 498 306 bng 15 250 50 0 empty empty empty 17 7 0 10 #fcfcfc
#000000 #000000;
#X obj 374 700 +~;
#X obj 397 672 *~;
#X obj 350 673 *~;
#X obj 575 181 value CROSSFADE_SPEED;
#X obj 575 128 loadbang;
#X obj 575 154 delay 10;
#X obj 557 227 -;
#X obj 556 281 delay;
#X obj 556 251 t b f;
#X msg 556 308 1;
#X obj 502 363 crossfader;
#X msg 498 335 0;
#X obj 367 626 line~;
#X msg 369 599 \$1 100;
#X obj 370 571 expr 1 - $f1;
#X obj 439 641 line~;
#X msg 441 614 \$1 100;
#X obj 556 131 bng 15 250 50 0 empty empty empty 17 7 0 10 #fcfcfc
#000000 #000000;
#X obj 575 204 + 250;
#X obj 283 411 loadbang;
#X msg 284 436 1;
#X msg 263 611 1;
#X obj 263 586 loadbang;
#X obj 611 607 netsend -u;
#X msg 611 581 connect localhost 6010;
#X obj 611 557 loadbang;
#X msg 574 534 send \$1;
#X obj 357 61 comm;
#X obj 357 85 select 48 49;
#X msg 196 199 stop;
#X obj 287 301 random 4000;
#X obj 285 327 + 1000;
#X obj 286 354 delay;
#X msg 286 276 bang;
#X obj 287 247 spigot 0;
#X msg 347 220 1;
#X msg 316 221 0;
#X obj 352 191 spigot 1;
#X msg 358 142 0;
#X msg 413 142 1;
#X obj 379 111 t b b;
#X connect 1 0 8 0;
#X connect 2 0 1 0;
#X connect 2 0 19 0;
#X connect 4 0 12 0;
#X connect 4 1 7 0;
#X connect 5 0 4 0;
#X connect 5 0 17 0;
#X connect 6 0 3 0;
#X connect 6 0 3 1;
#X connect 7 0 6 1;
#X connect 8 0 6 0;
#X connect 9 0 24 0;
#X connect 10 0 11 0;
#X connect 11 0 9 0;
#X connect 12 0 14 0;
#X connect 13 0 15 0;
#X connect 14 0 13 0;
#X connect 14 1 13 1;
#X connect 15 0 16 0;
#X connect 15 0 40 0;
#X connect 16 0 20 0;
#X connect 16 0 22 0;
#X connect 16 0 32 0;
#X connect 17 0 16 0;
#X connect 18 0 8 1;
#X connect 19 0 18 0;
#X connect 20 0 19 0;
#X connect 21 0 7 1;
#X connect 22 0 21 0;
#X connect 23 0 11 0;
#X connect 24 0 12 1;
#X connect 25 0 26 0;
#X connect 26 0 2 0;
#X connect 27 0 19 0;
#X connect 28 0 27 0;
#X connect 30 0 29 0;
#X connect 31 0 30 0;
#X connect 32 0 29 0;
#X connect 33 0 34 0;
#X connect 34 0 35 0;
#X connect 34 0 42 0;
#X connect 34 0 45 0;
#X connect 34 1 46 0;
#X connect 35 0 38 0;
#X connect 36 0 37 0;
#X connect 37 0 38 0;
#X connect 38 0 5 0;
#X connect 39 0 36 0;
#X connect 40 0 39 0;
#X connect 41 0 40 1;
#X connect 42 0 40 1;
#X connect 43 0 41 0;
#X connect 43 0 5 0;
#X connect 44 0 43 1;
#X connect 45 0 43 1;
#X connect 46 0 44 0;
#X connect 46 1 43 0;
